<svg height="223.20506mm" viewBox="0 0 209.59792 223.20506" width="209.59792mm" xmlns="http://www.w3.org/2000/svg"><path d="m107.10022 97.538236c0-.973237-1.1529-1.784252-2.8-1.946468-.16497 0-.32931 0-.49428 0 0 0 0 0-.16495 0-1.81177 0-3.12943.811015-3.12943 1.946468v8.272434h6.42357v-8.272434m-2.80006 24.492994c2.3059 0 4.11766-1.78425 4.11766-4.05514s-1.81176-4.05515-4.11766-4.05515c-2.30585 0-4.1176 1.78426-4.1176 4.05515s1.81175 4.05514 4.1176 4.05514zm.16497 14.59847c-2.63528 0-4.611758 1.45981-4.611758 3.24407v13.62523h9.058848v-13.62523c0-1.78426-1.97648-3.24407-4.44709-3.24407zm-63.41178-96.187691v81.913591s-.164342 27.57491 32.611776 42.98439c.16497.16247.49428.16247.82359.32432 0 0 .164341 0 .329298.16245.16497.16246.49428.16246.658875.32431 0 0 .16434 0 .16434.16246.658863.32432 1.317665.64887 2.141182 1.13545h.164969c.329311.16246.823518.32432 1.152949.6488 1.317676.64887 2.799995 1.45988 4.282375 2.10868 2.141133 1.13545 4.282315 2.2709 6.588224 3.40635l4.776446 2.43304c1.811741.97324 3.623498 1.94647 5.105878 2.75748.494278.3243.988228.48676 1.317678.81107 1.48232.81102 2.63527 1.45981 3.45878 1.94646.82352-.48676 1.97648-1.13544 3.45886-1.94646.49428-.16246.98823-.48677 1.48232-.81107 1.48239-.81101 3.12943-1.78424 4.94119-2.59526l4.77646-2.43306c2.14118-1.13544 4.44709-2.27089 6.58827-3.40633 1.48233-.81102 2.96471-1.45982 4.28232-2.10868.49428-.16247.82352-.48678 1.31767-.6488.82352-.32432 1.48232-.81102 2.14119-1.13544 0 0 .16496 0 .16496-.16247.32932-.16247.49427-.16247.65881-.32431 0 0 .16495 0 .16495-.16245.32931-.16247.49428-.32431.82353-.32431 32.77649-15.57171 32.61178-42.98441 32.61178-42.98441v-82.075801zm84.32944 120.031831.16497 6.00161c-3.12943 1.62203-6.25884 3.24412-8.07061 4.21734 0 0-4.77646 2.43306-4.77646 2.43306s-1.48232.81102-3.29414 1.78425v-3.89293c0-2.10862-2.14112-3.89292-4.94118-3.89292-2.63527 0-4.776458 1.7843-4.776458 3.89292v2.75753 1.1354c-1.81175-.97323-3.458794-1.78425-3.458794-1.78425s-4.776436-2.43306-4.776436-2.43306c-1.811811-.97322-4.941177-2.59531-8.070603-4.21734l.164969-5.8394-1.976466-3.24413 2.305897-.811.823518-24.33079v-1.13545l-1.811751-3.73071 3.458858-.48677.32931-13.46302-.823529-3.40627 3.952944-1.78432.32931-10.867704-.823517-.64885-.494268-5.839391 1.48238-.648799c-.16497-.973298-.658863-4.21736.658802-6.812689 1.64703-3.081844 6.094096-3.730711 6.094096-3.730711s3.458798-2.919694 2.96471-4.866147l-.49427-.64881s.16496-.811015.658858-.973232c0 0 0 0 .16435-.162452v-3.244128s-.823518-.811016-.823518-1.297603c0-.486768.823518-1.135446 1.317658-1.297661.49428-.162461-.6588-1.135447-.16495-2.108679.49426-.97323 1.31766-1.784246 1.81175-2.108677.32931-.324309.65886-1.459817.82352-2.433049-.32932-.16246-.49427-.648799-.49427-.97323 0-.48677.32931-.973232.6588-1.135447v-1.946464h-1.15296c-.16434.324308-.49427.486769-.98824.486769-.6588 0-1.15288-.486769-1.15288-1.135447 0-.648862.49428-1.135446 1.15288-1.135446.32931 0 .65888.16246.98824.486769h1.48239v-1.135385c-.32931-.162462-.49428-.48677-.49428-.973233 0-.648862.49428-1.135446 1.15296-1.135446.6588 0 1.15295.486769 1.15295 1.135446 0 .324309-.16497.648802-.32931.811016v1.297602h1.3176c.16497-.324309.49428-.486769.98825-.486769.65886 0 1.15295.486769 1.15295 1.135446 0 .648801-.49428 1.135447-1.15295 1.135447-.32931 0-.6588-.162461-.98825-.486769h-1.3176v1.946464c.32931.16246.6588.6488.6588 1.135447 0 .324308-.16496.811015-.49427.97323.16496.973232.49427 2.270894.82352 2.433049.6588.486767 1.31767 1.135447 1.81175 2.108677.49428.973232-.16496 2.108679-.16496 2.108679.49427.162461 1.15295.811015 1.31767 1.297661 0 .48677-.82352 1.297603-.82352 1.297603v3.244128s0 0 .16497.162452c.3293.32431.6588.973232.6588.973232l-.49428.64881c-.49426 1.946453 2.96471 4.866147 2.96471 4.866147s4.28238.811015 6.09413 3.730711c1.48233 2.595329.98824 5.839391.6588 6.812623l1.48239.648865-.49428 5.839391-.82351.6488.32931 10.867754 3.95294 1.78424-.82358 3.40635.3293 13.46302 3.45886.48677-1.81175 3.73071v.97323l.82352 24.33079 2.3059.81101z" fill="#0081c6" stroke-width="1.634508"/><path d="m22.400149 20.132292h167.065471v182.184518.75596h-169.333328v-182.940478z" fill="none" stroke="#000" stroke-width=".264583"/></svg>
