<?xml version="1.0" encoding="UTF-8" standalone="no"?>
<!-- Created with Inkscape (http://www.inkscape.org/) -->

<svg
   xmlns:dc="http://purl.org/dc/elements/1.1/"
   xmlns:cc="http://creativecommons.org/ns#"
   xmlns:rdf="http://www.w3.org/1999/02/22-rdf-syntax-ns#"
   xmlns:svg="http://www.w3.org/2000/svg"
   xmlns="http://www.w3.org/2000/svg"
   xmlns:sodipodi="http://sodipodi.sourceforge.net/DTD/sodipodi-0.dtd"
   xmlns:inkscape="http://www.inkscape.org/namespaces/inkscape"
   width="214.99036mm"
   height="249.14494mm"
   viewBox="0 0 214.99036 249.14494"
   version="1.1"
   id="svg3729"
   sodipodi:docname="sophia_loader.svg"
   inkscape:version="0.92.1 r15371">
  <defs
     id="defs3723" />
  <sodipodi:namedview
     id="base"
     pagecolor="#ffffff"
     bordercolor="#666666"
     borderopacity="1.0"
     inkscape:pageopacity="0.0"
     inkscape:pageshadow="2"
     inkscape:zoom="0.35"
     inkscape:cx="-50.063904"
     inkscape:cy="578.10797"
     inkscape:document-units="mm"
     inkscape:current-layer="svg3729"
     showgrid="false"
     inkscape:window-width="1536"
     inkscape:window-height="801"
     inkscape:window-x="-8"
     inkscape:window-y="-8"
     inkscape:window-maximized="1"
     fit-margin-top="20"
     fit-margin-left="20"
     fit-margin-right="20"
     fit-margin-bottom="20" />
  <metadata
     id="metadata3726">
    <rdf:RDF>
      <cc:Work
         rdf:about="">
        <dc:format>image/svg+xml</dc:format>
        <dc:type
           rdf:resource="http://purl.org/dc/dcmitype/StillImage" />
        <dc:title></dc:title>
      </cc:Work>
    </rdf:RDF>
  </metadata>
  <g
     inkscape:label="Layer 1"
     inkscape:groupmode="layer"
     id="layer1"
     transform="translate(-3.3405985,-3.1438543)" />
  <path
     inkscape:connector-curvature="0"
     style="fill:#0081c6;stroke-width:1.63450813"
     d="m 107.10022,97.538236 c 0,-0.973237 -1.1529,-1.784252 -2.8,-1.946468 -0.16497,0 -0.32931,0 -0.49428,0 0,0 0,0 -0.16495,0 -1.81177,0 -3.12943,0.811015 -3.12943,1.946468 v 8.272434 h 6.42357 v -8.272434 m -2.80006,24.492994 c 2.3059,0 4.11766,-1.78425 4.11766,-4.05514 0,-2.27089 -1.81176,-4.05515 -4.11766,-4.05515 -2.30585,0 -4.1176,1.78426 -4.1176,4.05515 0,2.27089 1.81175,4.05514 4.1176,4.05514 z m 0.16497,14.59847 c -2.63528,0 -4.611759,1.45981 -4.611759,3.24407 V 153.499 h 9.058849 v -13.62523 c 0,-1.78426 -1.97648,-3.24407 -4.44709,-3.24407 z M 40.888259,40.442009 V 122.3556 c 0,0 -0.164342,27.57491 32.611776,42.98439 0.16497,0.16247 0.49428,0.16247 0.82359,0.32432 0,0 0.164341,0 0.329298,0.16245 0.16497,0.16246 0.49428,0.16246 0.658875,0.32431 0,0 0.16434,0 0.16434,0.16246 0.658863,0.32432 1.317665,0.64887 2.141182,1.13545 h 0.164969 c 0.329311,0.16246 0.823518,0.32432 1.152949,0.6488 1.317676,0.64887 2.799995,1.45988 4.282375,2.10868 2.141133,1.13545 4.282315,2.2709 6.588224,3.40635 l 4.776446,2.43304 c 1.811741,0.97324 3.623498,1.94647 5.105878,2.75748 0.494279,0.3243 0.988229,0.48676 1.317679,0.81107 1.48232,0.81102 2.63527,1.45981 3.45878,1.94646 0.82352,-0.48676 1.97648,-1.13544 3.45886,-1.94646 0.49428,-0.16246 0.98823,-0.48677 1.48232,-0.81107 1.48239,-0.81101 3.12943,-1.78424 4.94119,-2.59526 l 4.77646,-2.43306 c 2.14118,-1.13544 4.44709,-2.27089 6.58827,-3.40633 1.48233,-0.81102 2.96471,-1.45982 4.28232,-2.10868 0.49428,-0.16247 0.82352,-0.48678 1.31767,-0.6488 0.82352,-0.32432 1.48232,-0.81102 2.14119,-1.13544 0,0 0.16496,0 0.16496,-0.16247 0.32932,-0.16247 0.49427,-0.16247 0.65881,-0.32431 0,0 0.16495,0 0.16495,-0.16245 0.32931,-0.16247 0.49428,-0.32431 0.82353,-0.32431 32.77649,-15.57171 32.61178,-42.98441 32.61178,-42.98441 V 40.442009 Z m 84.329441,120.031831 0.16497,6.00161 c -3.12943,1.62203 -6.25884,3.24412 -8.07061,4.21734 0,0 -4.77646,2.43306 -4.77646,2.43306 0,0 -1.48232,0.81102 -3.29414,1.78425 v -3.89293 c 0,-2.10862 -2.14112,-3.89292 -4.94118,-3.89292 -2.63527,0 -4.776459,1.7843 -4.776459,3.89292 v 2.75753 1.1354 c -1.81175,-0.97323 -3.458794,-1.78425 -3.458794,-1.78425 0,0 -4.776436,-2.43306 -4.776436,-2.43306 -1.811811,-0.97322 -4.941177,-2.59531 -8.070603,-4.21734 l 0.164969,-5.8394 -1.976466,-3.24413 2.305897,-0.811 0.823518,-24.33079 v -1.13545 l -1.811751,-3.73071 3.458858,-0.48677 0.32931,-13.46302 -0.823529,-3.40627 3.952944,-1.78432 0.32931,-10.867704 -0.823517,-0.64885 -0.494268,-5.839391 1.48238,-0.648799 c -0.16497,-0.973298 -0.658863,-4.21736 0.658802,-6.812689 1.64703,-3.081844 6.094096,-3.730711 6.094096,-3.730711 0,0 3.458799,-2.919694 2.96471,-4.866147 l -0.49427,-0.64881 c 0,0 0.16496,-0.811015 0.658859,-0.973232 0,0 0,0 0.16435,-0.162452 v -3.244128 c 0,0 -0.823519,-0.811016 -0.823519,-1.297603 0,-0.486768 0.823519,-1.135446 1.317659,-1.297661 0.49428,-0.162461 -0.6588,-1.135447 -0.16495,-2.108679 0.49426,-0.97323 1.31766,-1.784246 1.81175,-2.108677 0.32931,-0.324309 0.65886,-1.459817 0.82352,-2.433049 -0.32932,-0.16246 -0.49427,-0.648799 -0.49427,-0.97323 0,-0.48677 0.32931,-0.973232 0.6588,-1.135447 v -1.946464 h -1.15296 c -0.16434,0.324308 -0.49427,0.486769 -0.98824,0.486769 -0.6588,0 -1.15288,-0.486769 -1.15288,-1.135447 0,-0.648862 0.49428,-1.135446 1.15288,-1.135446 0.32931,0 0.65888,0.16246 0.98824,0.486769 h 1.48239 v -1.135385 c -0.32931,-0.162462 -0.49428,-0.48677 -0.49428,-0.973233 0,-0.648862 0.49428,-1.135446 1.15296,-1.135446 0.6588,0 1.15295,0.486769 1.15295,1.135446 0,0.324309 -0.16497,0.648802 -0.32931,0.811016 v 1.297602 h 1.3176 c 0.16497,-0.324309 0.49428,-0.486769 0.98825,-0.486769 0.65886,0 1.15295,0.486769 1.15295,1.135446 0,0.648801 -0.49428,1.135447 -1.15295,1.135447 -0.32931,0 -0.6588,-0.162461 -0.98825,-0.486769 h -1.3176 v 1.946464 c 0.32931,0.16246 0.6588,0.6488 0.6588,1.135447 0,0.324308 -0.16496,0.811015 -0.49427,0.97323 0.16496,0.973232 0.49427,2.270894 0.82352,2.433049 0.6588,0.486767 1.31767,1.135447 1.81175,2.108677 0.49428,0.973232 -0.16496,2.108679 -0.16496,2.108679 0.49427,0.162461 1.15295,0.811015 1.31767,1.297661 0,0.48677 -0.82352,1.297603 -0.82352,1.297603 v 3.244128 c 0,0 0,0 0.16497,0.162452 0.3293,0.32431 0.6588,0.973232 0.6588,0.973232 l -0.49428,0.64881 c -0.49426,1.946453 2.96471,4.866147 2.96471,4.866147 0,0 4.28238,0.811015 6.09413,3.730711 1.48233,2.595329 0.98824,5.839391 0.6588,6.812623 l 1.48239,0.648865 -0.49428,5.839391 -0.82351,0.6488 0.32931,10.867754 3.95294,1.78424 -0.82358,3.40635 0.3293,13.46302 3.45886,0.48677 -1.81175,3.73071 v 0.97323 l 0.82352,24.33079 2.3059,0.81101 z"
     id="path40" />
  <path
     style="fill:none;stroke:#000000;stroke-width:0.26458332px;stroke-linecap:butt;stroke-linejoin:miter;stroke-opacity:1"
     d="M 22.400149,20.132292 H 189.46562 v 182.184518 0.75596 H 20.132292 V 20.132292 Z"
     id="path3746"
     inkscape:connector-curvature="0" />
  <g
     transform="matrix(0.50699085,0,0,0.50699085,-68.921885,202.90508)"
     style="fill:#9fa1a4"
     id="g38">
    <path
       inkscape:connector-curvature="0"
       d="m 203.1,32.6 c -2.6,-2.7 -6.8,-4.3 -10.6,-4.3 -3.9,0 -8.7,1.5 -8.7,6.1 0,9.3 23.2,9.1 23.2,21.6 0,7.2 -7.6,14 -18.1,14 -4.1,0 -8.2,-0.6 -12.1,-2 l -2,-8.4 c 4,3.4 9.5,5.6 14.8,5.6 3.8,0 9.7,-2.3 9.7,-7 0,-10.5 -23.2,-8.6 -23.2,-23 0,-8.5 8.7,-11.8 17,-11.8 3.4,0 6.8,0.5 10.1,1.5 v 7.7"
       id="path10" />
    <path
       inkscape:connector-curvature="0"
       d="m 227.3,49.4 c 0,2.6 0,4.4 2.4,5.9 v 0.1 h -9.2 v -0.1 c 2.3,-0.9 2,-4.3 2,-6.3 V 28.3 h -4.1 c -2,0 -4.1,0.5 -5.5,1.9 h -0.1 l 1.6,-5.5 h 0.1 c 0.6,0.2 1.2,0.2 1.8,0.3 h 18.4 c 0.8,0 1.5,0 2.1,-0.3 h 0.1 l -1.5,5.5 h -0.1 c -0.6,-1.6 -2.5,-1.9 -4,-1.9 h -4.2 v 21.1"
       id="path12" />
    <path
       inkscape:connector-curvature="0"
       d="m 218.9,67.8 c -2.4,0 -3.6,0 -5.9,0.8 l -0.1,-0.1 3,-3.4 c 0.5,-0.5 0.9,-1.1 1.6,-1.4 0.7,-0.3 3.2,-0.3 4.1,-0.3 h 6.8 c 2.4,0 3.6,0 5.9,-0.8 l 0.1,0.1 -3,3.4 c -0.5,0.5 -0.9,1.1 -1.6,1.4 -0.7,0.3 -3.2,0.3 -4.1,0.3 z"
       id="path14" />
    <path
       inkscape:connector-curvature="0"
       d="m 279.7,32.6 c -2.6,-2.7 -6.8,-4.3 -10.6,-4.3 -3.9,0 -8.7,1.5 -8.7,6.1 0,9.3 23.2,9.1 23.2,21.6 0,7.2 -7.6,14 -18.1,14 -4.1,0 -8.2,-0.6 -12.1,-2 l -2,-8.4 c 4,3.4 9.5,5.6 14.8,5.6 3.9,0 9.7,-2.3 9.7,-7 0,-10.5 -23.2,-8.6 -23.2,-23 0,-8.5 8.7,-11.8 17,-11.8 3.4,0 6.8,0.5 10.1,1.5 v 7.7"
       id="path16" />
    <path
       inkscape:connector-curvature="0"
       d="m 340.9,46.3 c 0,13.8 -11.4,23.8 -24.9,23.8 -13.4,0 -24.7,-9.6 -24.7,-23.4 0,-12.8 11.1,-23.6 25.3,-23.2 14.3,-0.2 24.3,10.6 24.3,22.8 M 299.1,46 c 0,9.5 6.7,19.2 17.3,19.2 10.3,0 16.8,-7.5 16.8,-17.6 0,-9.9 -6.3,-19.4 -17,-19.4 -10.5,0.1 -17.1,7.6 -17.1,17.8 z"
       id="path18" />
    <path
       inkscape:connector-curvature="0"
       d="m 365.5,24.6 c 8.8,0 15.5,4.3 15.5,11.8 0,7.8 -7.2,12.7 -14.9,12.7 -1.7,0 -3.4,-0.2 -4.9,-0.9 5.8,-0.3 12.1,-3.9 12.1,-10.4 0,-5.9 -4.2,-8.3 -9.6,-8.3 -1.6,0 -3.2,0.1 -4.7,0.4 v 30.5 c 0,3.8 -0.1,6.5 3.5,8.5 V 69 h -13.4 v -0.2 c 3.4,-1.2 3,-6.2 3,-9.3 V 34.1 c 0,-3 0.4,-8 -3,-9.3 v -0.2 z"
       id="path20" />
    <path
       inkscape:connector-curvature="0"
       d="m 398.6,47.3 v 12.2 c 0,3 -0.4,8 3,9.3 V 69 h -12.8 v -0.2 c 3.4,-1.3 3,-6.2 3,-9.3 V 34 c 0,-3 0.5,-8 -3,-9.3 v -0.2 h 12.8 v 0.2 c -3.4,1.3 -3,6.2 -3,9.3 v 8.4 H 423 V 34 c 0,-3.1 0.5,-8 -3,-9.3 v -0.2 h 12.9 v 0.2 c -3.4,1.3 -3,6.2 -3,9.3 v 25.5 c 0,3 -0.4,8 3,9.3 V 69 H 420 v -0.2 c 3.4,-1.3 3,-6.2 3,-9.3 V 47.3 Z"
       id="path22" />
    <path
       inkscape:connector-curvature="0"
       d="m 445.8,34.1 c 0,-3.1 0.5,-8 -3,-9.3 v -0.2 h 12.8 v 0.2 c -3.4,1.3 -3,6.3 -3,9.3 v 25.5 c 0,3 -0.4,8 3,9.3 V 69 h -12.8 v -0.2 c 3.4,-1.2 3,-6.2 3,-9.3 z"
       id="path24" />
    <path
       inkscape:connector-curvature="0"
       d="m 478.1,52.3 -3.5,9.5 c -1.4,3.8 -1.9,5.7 1.4,7 V 69 h -12.4 v -0.2 c 3.9,-2 5.1,-5.7 6.6,-9.6 L 481.4,31 c 0.9,-2.4 2.2,-5.3 -1,-6.3 V 24.5 H 491 l 14,34.6 c 1.6,3.8 2.8,7.6 6.6,9.6 V 69 h -13.8 v -0.2 c 3.3,-1.5 2.8,-2.2 0.9,-7 l -3.6,-9.5 z m 8.5,-22 -6.7,17 h 13.3 z"
       id="path26" />
  </g>
</svg>
