<?xml version="1.0" encoding="UTF-8" standalone="no"?>
<!-- Created with Inkscape (http://www.inkscape.org/) -->

<svg
   xmlns:dc="http://purl.org/dc/elements/1.1/"
   xmlns:cc="http://creativecommons.org/ns#"
   xmlns:rdf="http://www.w3.org/1999/02/22-rdf-syntax-ns#"
   xmlns:svg="http://www.w3.org/2000/svg"
   xmlns="http://www.w3.org/2000/svg"
   xmlns:sodipodi="http://sodipodi.sourceforge.net/DTD/sodipodi-0.dtd"
   xmlns:inkscape="http://www.inkscape.org/namespaces/inkscape"
   width="214.99036mm"
   height="249.14494mm"
   viewBox="0 0 214.99036 249.14494"
   version="1.1"
   id="svg3729"
   sodipodi:docname="sophia_loader.svg"
   inkscape:version="0.92.1 r15371">
  <defs
     id="defs3723" />
  <sodipodi:namedview
     id="base"
     pagecolor="#ffffff"
     bordercolor="#666666"
     borderopacity="1.0"
     inkscape:pageopacity="0.0"
     inkscape:pageshadow="2"
     inkscape:zoom="0.35"
     inkscape:cx="-50.063904"
     inkscape:cy="578.10797"
     inkscape:document-units="mm"
     inkscape:current-layer="svg3729"
     showgrid="false"
     inkscape:window-width="1536"
     inkscape:window-height="801"
     inkscape:window-x="-8"
     inkscape:window-y="-8"
     inkscape:window-maximized="1"
     fit-margin-top="20"
     fit-margin-left="20"
     fit-margin-right="20"
     fit-margin-bottom="20" />
  <metadata
     id="metadata3726">
    <rdf:RDF>
      <cc:Work
         rdf:about="">
        <dc:format>image/svg+xml</dc:format>
        <dc:type
           rdf:resource="http://purl.org/dc/dcmitype/StillImage" />
        <dc:title></dc:title>
      </cc:Work>
    </rdf:RDF>
  </metadata>
  <g
     inkscape:label="Layer 1"
     inkscape:groupmode="layer"
     id="layer1"
     transform="translate(-3.3405985,-3.1438543)" />
  <path
     inkscape:connector-curvature="0"
     style="fill:#0081c6;stroke-width:1.85340345"
     d="m 109.54147,95.810774 c 0,-1.103571 -1.3073,-2.023198 -3.17499,-2.207125 -0.18706,0 -0.37341,0 -0.56046,0 0,0 0,0 -0.18704,0 -2.05441,0 -3.54853,0.919624 -3.54853,2.207125 v 9.380266 h 7.28382 v -9.380266 m -3.17505,27.773096 c 2.61471,0 4.6691,-2.02319 4.6691,-4.59821 0,-2.575 -2.05439,-4.59822 -4.6691,-4.59822 -2.61465,0 -4.66903,2.02322 -4.66903,4.59822 0,2.57502 2.05438,4.59821 4.66903,4.59821 z m 0.18707,16.55352 c -2.9882,0 -5.22938,1.65531 -5.22938,3.67852 v 15.44994 h 10.27202 v -15.44994 c 0,-2.02321 -2.24117,-3.67852 -5.04264,-3.67852 z M 34.462367,31.068191 v 92.883489 c 0,0 -0.186351,31.26778 36.979186,48.74092 0.187062,0.18423 0.560473,0.18423 0.933885,0.36775 0,0 0.18635,0 0.373398,0.18421 0.187063,0.18421 0.560475,0.18421 0.747113,0.36773 0,0 0.186349,0 0.186349,0.18422 0.747098,0.36776 1.494128,0.73578 2.427931,1.28752 h 0.187061 c 0.373413,0.18421 0.933805,0.36774 1.307354,0.73568 1.494141,0.73577 3.174973,1.65539 4.855876,2.39108 2.427877,1.28751 4.855808,2.57503 7.470527,3.86253 l 5.4161,2.75888 c 2.054348,1.10358 4.108729,2.20714 5.789623,3.12677 0.56048,0.36772 1.12058,0.55194 1.49415,0.91968 1.68083,0.91964 2.98819,1.65531 3.92198,2.20714 0.93381,-0.55195 2.24118,-1.2875 3.92208,-2.20714 0.56047,-0.18422 1.12057,-0.55196 1.68083,-0.91968 1.68092,-0.91963 3.54853,-2.02319 5.60293,-2.94283 l 5.41613,-2.7589 c 2.42793,-1.28749 5.04264,-2.575 7.47057,-3.86251 1.68085,-0.91963 3.36175,-1.65532 4.85582,-2.39107 0.56047,-0.18423 0.9338,-0.55197 1.49413,-0.73569 0.93381,-0.36775 1.68083,-0.91964 2.42794,-1.2875 0,0 0.18705,0 0.18705,-0.18422 0.37342,-0.18423 0.56047,-0.18423 0.74704,-0.36775 0,0 0.18704,0 0.18704,-0.1842 0.37341,-0.18423 0.56047,-0.36775 0.93382,-0.36775 37.16595,-17.65709 36.97919,-48.74094 36.97919,-48.74094 V 31.068191 Z m 95.622893,136.106579 0.18707,6.80535 c -3.54853,1.83925 -7.09704,3.67858 -9.15144,4.78213 0,0 -5.41613,2.7589 -5.41613,2.7589 0,0 -1.68083,0.91963 -3.7353,2.0232 v -4.41428 c 0,-2.39101 -2.42786,-4.41427 -5.60291,-4.41427 -2.98818,0 -5.41612,2.02326 -5.41612,4.41427 v 3.12683 1.28745 c -2.054371,-1.10357 -3.921982,-2.0232 -3.921982,-2.0232 0,0 -5.41607,-2.7589 -5.41607,-2.7589 -2.054455,-1.10355 -5.60291,-2.94288 -9.151432,-4.78213 l 0.187062,-6.62142 -2.241157,-3.67859 2.614704,-0.91961 0.933805,-27.5892 v -1.28751 l -2.054382,-4.23033 3.922072,-0.55195 0.373412,-15.26602 -0.933817,-3.86244 4.482327,-2.02327 0.373411,-12.323093 -0.933803,-0.735737 -0.560461,-6.621382 1.680902,-0.735686 c -0.187063,-1.103644 -0.747098,-4.782155 0.74703,-7.725054 1.867601,-3.494568 6.910191,-4.230332 6.910191,-4.230332 0,0 3.921998,-3.310703 3.361738,-5.517827 l -0.56047,-0.7357 c 0,0 0.18705,-0.919626 0.74709,-1.103567 0,0 0,0 0.18636,-0.184209 v -3.678585 c 0,0 -0.9338,-0.919628 -0.9338,-1.471379 0,-0.551957 0.9338,-1.287507 1.49412,-1.471446 0.56048,-0.184218 -0.74702,-1.287507 -0.18704,-2.391076 0.56045,-1.103566 1.49413,-2.023194 2.05439,-2.391073 0.3734,-0.367741 0.74709,-1.655318 0.9338,-2.758887 -0.37343,-0.184216 -0.56047,-0.735686 -0.56047,-1.103565 0,-0.55196 0.37342,-1.103569 0.74704,-1.287508 v -2.207137 h -1.30737 c -0.18635,0.36774 -0.56046,0.551958 -1.12059,0.551958 -0.74703,0 -1.30728,-0.551958 -1.30728,-1.287508 0,-0.735758 0.56048,-1.287505 1.30728,-1.287505 0.37342,0 0.74712,0.184216 1.12059,0.551957 h 1.68091 v -1.287438 c -0.3734,-0.184218 -0.56047,-0.551958 -0.56047,-1.103568 0,-0.735759 0.56047,-1.287507 1.30737,-1.287507 0.74702,0 1.30735,0.551957 1.30735,1.287507 0,0.36774 -0.18707,0.73569 -0.37342,0.919627 v 1.471379 h 1.49406 c 0.18707,-0.367741 0.56047,-0.551957 1.1206,-0.551957 0.7471,0 1.30736,0.551957 1.30736,1.287505 0,0.73569 -0.56048,1.287508 -1.30736,1.287508 -0.37341,0 -0.74703,-0.184218 -1.1206,-0.551958 h -1.49406 v 2.207137 c 0.37342,0.184217 0.74703,0.735688 0.74703,1.287508 0,0.367739 -0.18704,0.919626 -0.56046,1.103565 0.18706,1.103569 0.56046,2.575016 0.9338,2.758887 0.74704,0.551955 1.49414,1.287507 2.05439,2.391073 0.56047,1.103569 -0.18705,2.391076 -0.18705,2.391076 0.56046,0.184218 1.30735,0.919627 1.49413,1.471446 0,0.551958 -0.9338,1.471379 -0.9338,1.471379 v 3.678585 c 0,0 0,0 0.18706,0.184209 0.37339,0.367741 0.74703,1.103567 0.74703,1.103567 l -0.56048,0.7357 c -0.56046,2.207124 3.36175,5.517827 3.36175,5.517827 0,0 4.85588,0.919628 6.91026,4.230332 1.68085,2.942899 1.12059,6.62141 0.74702,7.724979 l 1.68092,0.735761 -0.56048,6.621382 -0.93379,0.735677 0.37342,12.323153 4.48232,2.02319 -0.93388,3.86252 0.3734,15.26602 3.92208,0.55195 -2.05439,4.23033 v 1.10357 l 0.93381,27.5892 2.61471,0.91962 z"
     id="path40" />
  <g
     transform="matrix(0.50699085,0,0,0.50699085,-68.921885,202.90508)"
     style="fill:#9fa1a4"
     id="g38">
    <path
       inkscape:connector-curvature="0"
       d="m 203.1,32.6 c -2.6,-2.7 -6.8,-4.3 -10.6,-4.3 -3.9,0 -8.7,1.5 -8.7,6.1 0,9.3 23.2,9.1 23.2,21.6 0,7.2 -7.6,14 -18.1,14 -4.1,0 -8.2,-0.6 -12.1,-2 l -2,-8.4 c 4,3.4 9.5,5.6 14.8,5.6 3.8,0 9.7,-2.3 9.7,-7 0,-10.5 -23.2,-8.6 -23.2,-23 0,-8.5 8.7,-11.8 17,-11.8 3.4,0 6.8,0.5 10.1,1.5 v 7.7"
       id="path10" />
    <path
       inkscape:connector-curvature="0"
       d="m 227.3,49.4 c 0,2.6 0,4.4 2.4,5.9 v 0.1 h -9.2 v -0.1 c 2.3,-0.9 2,-4.3 2,-6.3 V 28.3 h -4.1 c -2,0 -4.1,0.5 -5.5,1.9 h -0.1 l 1.6,-5.5 h 0.1 c 0.6,0.2 1.2,0.2 1.8,0.3 h 18.4 c 0.8,0 1.5,0 2.1,-0.3 h 0.1 l -1.5,5.5 h -0.1 c -0.6,-1.6 -2.5,-1.9 -4,-1.9 h -4.2 v 21.1"
       id="path12" />
    <path
       inkscape:connector-curvature="0"
       d="m 218.9,67.8 c -2.4,0 -3.6,0 -5.9,0.8 l -0.1,-0.1 3,-3.4 c 0.5,-0.5 0.9,-1.1 1.6,-1.4 0.7,-0.3 3.2,-0.3 4.1,-0.3 h 6.8 c 2.4,0 3.6,0 5.9,-0.8 l 0.1,0.1 -3,3.4 c -0.5,0.5 -0.9,1.1 -1.6,1.4 -0.7,0.3 -3.2,0.3 -4.1,0.3 z"
       id="path14" />
    <path
       inkscape:connector-curvature="0"
       d="m 279.7,32.6 c -2.6,-2.7 -6.8,-4.3 -10.6,-4.3 -3.9,0 -8.7,1.5 -8.7,6.1 0,9.3 23.2,9.1 23.2,21.6 0,7.2 -7.6,14 -18.1,14 -4.1,0 -8.2,-0.6 -12.1,-2 l -2,-8.4 c 4,3.4 9.5,5.6 14.8,5.6 3.9,0 9.7,-2.3 9.7,-7 0,-10.5 -23.2,-8.6 -23.2,-23 0,-8.5 8.7,-11.8 17,-11.8 3.4,0 6.8,0.5 10.1,1.5 v 7.7"
       id="path16" />
    <path
       inkscape:connector-curvature="0"
       d="m 340.9,46.3 c 0,13.8 -11.4,23.8 -24.9,23.8 -13.4,0 -24.7,-9.6 -24.7,-23.4 0,-12.8 11.1,-23.6 25.3,-23.2 14.3,-0.2 24.3,10.6 24.3,22.8 M 299.1,46 c 0,9.5 6.7,19.2 17.3,19.2 10.3,0 16.8,-7.5 16.8,-17.6 0,-9.9 -6.3,-19.4 -17,-19.4 -10.5,0.1 -17.1,7.6 -17.1,17.8 z"
       id="path18" />
    <path
       inkscape:connector-curvature="0"
       d="m 365.5,24.6 c 8.8,0 15.5,4.3 15.5,11.8 0,7.8 -7.2,12.7 -14.9,12.7 -1.7,0 -3.4,-0.2 -4.9,-0.9 5.8,-0.3 12.1,-3.9 12.1,-10.4 0,-5.9 -4.2,-8.3 -9.6,-8.3 -1.6,0 -3.2,0.1 -4.7,0.4 v 30.5 c 0,3.8 -0.1,6.5 3.5,8.5 V 69 h -13.4 v -0.2 c 3.4,-1.2 3,-6.2 3,-9.3 V 34.1 c 0,-3 0.4,-8 -3,-9.3 v -0.2 z"
       id="path20" />
    <path
       inkscape:connector-curvature="0"
       d="m 398.6,47.3 v 12.2 c 0,3 -0.4,8 3,9.3 V 69 h -12.8 v -0.2 c 3.4,-1.3 3,-6.2 3,-9.3 V 34 c 0,-3 0.5,-8 -3,-9.3 v -0.2 h 12.8 v 0.2 c -3.4,1.3 -3,6.2 -3,9.3 v 8.4 H 423 V 34 c 0,-3.1 0.5,-8 -3,-9.3 v -0.2 h 12.9 v 0.2 c -3.4,1.3 -3,6.2 -3,9.3 v 25.5 c 0,3 -0.4,8 3,9.3 V 69 H 420 v -0.2 c 3.4,-1.3 3,-6.2 3,-9.3 V 47.3 Z"
       id="path22" />
    <path
       inkscape:connector-curvature="0"
       d="m 445.8,34.1 c 0,-3.1 0.5,-8 -3,-9.3 v -0.2 h 12.8 v 0.2 c -3.4,1.3 -3,6.3 -3,9.3 v 25.5 c 0,3 -0.4,8 3,9.3 V 69 h -12.8 v -0.2 c 3.4,-1.2 3,-6.2 3,-9.3 z"
       id="path24" />
    <path
       inkscape:connector-curvature="0"
       d="m 478.1,52.3 -3.5,9.5 c -1.4,3.8 -1.9,5.7 1.4,7 V 69 h -12.4 v -0.2 c 3.9,-2 5.1,-5.7 6.6,-9.6 L 481.4,31 c 0.9,-2.4 2.2,-5.3 -1,-6.3 V 24.5 H 491 l 14,34.6 c 1.6,3.8 2.8,7.6 6.6,9.6 V 69 h -13.8 v -0.2 c 3.3,-1.5 2.8,-2.2 0.9,-7 l -3.6,-9.5 z m 8.5,-22 -6.7,17 h 13.3 z"
       id="path26" />
  </g>
</svg>
